<svg xmlns="http://www.w3.org/2000/svg" xmlns:xlink="http://www.w3.org/1999/xlink" viewBox="0 0 64 64">
    <title>Hamburger Menu</title>
    <style>
        .c2dl-hamburger-icon-fg{fill:rgb(0, 0, 0)}
    </style>
    <g transform="matrix(2,0,0,2,-461,-412.5)">
        <desc>Hamburger Menu icon</desc>
        <path class="c2dl-hamburger-icon-fg" d="M233,213.75C233,212.784 233.779,212 234.751,212L258.249,212C259.216,212 260,212.777 260,213.75C260,214.717 259.221,215.5 258.249,215.5L234.751,215.5C233.784,215.5 233,214.723 233,213.75ZM233,222.25C233,221.284 233.779,220.5 234.751,220.5L258.249,220.5C259.216,220.5 260,221.277 260,222.25C260,223.217 259.221,224 258.249,224L234.751,224C233.784,224 233,223.223 233,222.25ZM233,230.75C233,229.784 233.779,229 234.751,229L258.249,229C259.216,229 260,229.777 260,230.75C260,231.717 259.221,232.5 258.249,232.5L234.751,232.5C233.784,232.5 233,231.723 233,230.75Z">
            <desc>Shape - Three bars stacked up</desc>
        </path>
    </g>
</svg>
