<svg xmlns="http://www.w3.org/2000/svg" xmlns:xlink="http://www.w3.org/1999/xlink" width="100%" height="100%" viewBox="0 0 64 64">
  <title>C2DL Logo</title>
  <defs>
    <symbol id="c2l" width="11" height="12">
      <desc>T-Symbol (branch)</desc>
      <path d="M6,6L6,7L5,7L5,6L6,6ZM7,5L7,6L6,6L6,5L7,5Z" fill="#356C80"><desc>Light blue T-Separator (upper/bottom)</desc></path>
      <rect x="4" y="4" width="2" height="2" fill="#fff"><desc>White inner (T-bottom, upper part)</desc></rect>
      <path d="M4,5L3,5L3,3L5,3L5,4L4,4L4,5Z" fill="#BDCCD2"><desc>Gray inner (T-bottom, middle part)</desc></path>
      <path d="M1,1L3,1L3,2L4,2L4,3L3,3L3,4L2,4L2,3L1,3L1,1Z" fill="#77A8BB"><desc>Light blue inner (T-bottom, bottom part)</desc></path>
      <path d="M5,12L4,12L4,11L5,11L5,12ZM6,11L5,11L5,10L6,10L6,11ZM7,10L6,10L6,9L7,9L7,10ZM8,9L7,9L7,8L8,8L8,9ZM9,8L8,8L8,7L9,7L9,8ZM10,7L9,7L9,6L10,6L10,7ZM11,6L10,6L10,5L11,5L11,6Z" fill="#356C80"><desc>Light blue upper T-border</desc></path>
      <path d="M11,5L10,5L10,6L9,6L9,7L8,7L8,8L7,8L7,9L6,9L6,10L5,10L5,11L3,11L3,9L4,9L4,8L5,8L5,7L6,7L6,6L7,6L7,5L8,5L8,4L9,4L9,3L11,3L11,5Z" fill="#fff"><desc>White inner (T-upper)</desc></path>
      <path d="M3,12L3,11L4,11L4,12L3,12ZM2,9L3,9L3,11L2,11L2,9ZM3,9L3,8L4,8L4,9L3,9ZM5,8L4,8L4,6L5,6L5,8ZM4,6L3,6L3,5L4,5L4,6ZM3,5L2,5L2,4L3,4L3,5ZM8,5L6,5L6,4L8,4L8,5ZM9,4L8,4L8,3L9,3L9,4ZM2,4L1,4L1,3L2,3L2,4ZM6,4L5,4L5,3L6,3L6,4ZM11,3L9,3L9,2L11,2L11,3ZM5,3L4,3L4,2L5,2L5,3ZM1,3L0,3L0,0L3,0L3,1L1,1L1,3ZM4,2L3,2L3,1L4,1L4,2Z" fill="#0F2C5B"><desc>Dark blue border</desc></path>
    </symbol>
    <symbol id="c2la" width="23" height="23">
      <desc>4 T-Symbol (branch) combined. Upper T-parts connected. Results in rhombic form with 4 sticking out elements</desc>
      <use xlink:href="#c2l"/>
      <use xlink:href="#c2l" x="11" transform="rotate(90,17,6)"/>
      <use xlink:href="#c2l" x="11" y="12" transform="rotate(180,17,17.5)"/>
      <use xlink:href="#c2l" y="12" transform="rotate(270,5.5,17.5)"/>
    </symbol>
  </defs>
  <rect width="64" height="64" fill="none"><desc>Transparent background</desc></rect>
  <use xlink:href="#c2la" x="5" y="5" transform="scale(2,2)"/>
</svg>