<svg
   version="1.0"
   width="1850.000000pt"
   height="1850.000000pt"
   viewBox="0 0 1850.000000 1850.000000"
   preserveAspectRatio="xMidYMid meet"
   id="svg1"
   sodipodi:docname="05homepage_icon.svg"
   inkscape:version="1.3.2 (091e20e, 2023-11-25)"
   xmlns:inkscape="http://www.inkscape.org/namespaces/inkscape"
   xmlns:sodipodi="http://sodipodi.sourceforge.net/DTD/sodipodi-0.dtd"
   xmlns="http://www.w3.org/2000/svg"
   xmlns:svg="http://www.w3.org/2000/svg">
  <defs
     id="defs1" />
  <sodipodi:namedview
     id="namedview1"
     pagecolor="#ffffff"
     bordercolor="#000000"
     borderopacity="0.25"
     inkscape:showpageshadow="2"
     inkscape:pageopacity="0.0"
     inkscape:pagecheckerboard="0"
     inkscape:deskcolor="#d1d1d1"
     inkscape:document-units="pt"
     inkscape:zoom="0.28035828"
     inkscape:cx="1473.115"
     inkscape:cy="1485.5991"
     inkscape:window-width="2560"
     inkscape:window-height="1377"
     inkscape:window-x="26"
     inkscape:window-y="23"
     inkscape:window-maximized="0"
     inkscape:current-layer="svg1" />
  <metadata
     id="metadata1">
Created by potrace 1.16, written by Peter Selinger 2001-2019
</metadata>
  <g
     transform="matrix(0.13202827,0,0,-0.13202827,-301.77228,2143.7724)"
     fill="#000000"
     stroke="none"
     id="g1">
    <path
       d="m 8600,16159 c -1029,-103 -2022,-432 -2905,-962 -1147,-689 -2091,-1710 -2664,-2882 -224,-458 -426,-1024 -526,-1475 -86,-386 -128,-625 -157,-900 -14,-141 -14,-1239 0,-1380 51,-479 167,-1015 325,-1500 265,-809 700,-1594 1231,-2220 214,-253 573,-623 786,-811 484,-426 1111,-827 1720,-1100 626,-280 1225,-450 1975,-560 356,-52 1334,-52 1725,1 710,94 1331,270 1970,554 1129,504 2066,1270 2806,2296 328,453 629,1001 808,1470 20,52 42,106 48,120 21,50 107,308 151,455 102,341 190,751 237,1105 36,277 51,964 30,1410 -22,466 -156,1122 -341,1675 -266,790 -654,1500 -1172,2145 -215,267 -690,754 -936,959 -606,504 -1346,936 -2046,1193 -679,249 -1351,387 -1990,408 -347,11 -956,11 -1075,-1 z m -654,-1296 c -4,-9 -60,-112 -125,-227 -405,-720 -603,-1144 -826,-1761 -78,-216 -121,-348 -245,-745 -28,-91 -60,-174 -70,-184 -18,-18 -23,-18 -77,-7 -32,7 -83,21 -113,31 -197,63 -272,88 -410,137 -179,64 -404,149 -505,192 -246,103 -905,427 -905,444 0,47 259,358 489,587 257,256 537,486 836,686 206,139 311,202 520,316 381,208 834,391 1260,509 61,17 115,32 120,34 6,2 21,4 34,4 18,1 22,-3 17,-16 z m 2834,-38 c 240,-70 536,-174 695,-245 22,-10 69,-30 105,-45 120,-50 414,-197 554,-277 461,-263 850,-576 1320,-1059 203,-209 339,-364 364,-417 16,-33 16,-34 -8,-53 -32,-25 -583,-299 -760,-377 -121,-53 -256,-108 -495,-199 -224,-87 -660,-223 -710,-223 -27,0 -46,34 -78,140 -314,1033 -579,1669 -1014,2435 -127,224 -193,347 -193,361 0,13 97,-5 220,-41 z m -1472,-207 c 147,-202 367,-550 507,-804 95,-173 335,-658 404,-819 29,-66 59,-136 68,-155 64,-145 245,-668 322,-931 47,-162 58,-224 41,-234 -22,-13 -309,-54 -462,-64 -571,-41 -1318,-41 -1878,0 -149,10 -439,51 -460,64 -17,11 -7,70 35,217 100,343 216,669 368,1033 84,201 139,319 269,580 248,495 670,1165 734,1165 7,0 31,-24 52,-52 z M 4215,11665 c 72,-35 218,-105 325,-157 511,-249 957,-430 1475,-599 326,-106 402,-135 415,-160 14,-26 12,-145 -5,-289 -25,-209 -35,-545 -35,-1210 0,-665 10,-1001 35,-1210 17,-144 19,-263 5,-289 -13,-25 -85,-53 -440,-169 -168,-55 -381,-130 -475,-165 -158,-61 -200,-78 -352,-141 -159,-65 -380,-165 -588,-266 -77,-37 -219,-106 -315,-152 -96,-47 -183,-88 -192,-91 -36,-13 -96,103 -210,408 -205,549 -321,1020 -348,1410 -13,194 -13,1136 0,1330 17,246 59,475 145,790 104,376 301,910 371,1002 29,38 15,41 189,-42 z m 10320,-80 c 57,-116 72,-154 136,-330 147,-403 288,-978 320,-1309 13,-134 12,-1076 -1,-1291 -25,-408 -95,-744 -256,-1221 -98,-293 -229,-610 -270,-656 -14,-15 -19,-15 -67,7 -65,28 -209,97 -442,210 -535,259 -1011,452 -1504,610 -300,97 -353,117 -380,143 -26,26 -26,13 4,287 25,221 35,565 35,1215 0,650 -10,994 -35,1215 -30,274 -30,261 -4,287 26,26 97,52 409,153 243,78 386,130 610,219 359,143 487,200 1030,462 124,60 245,119 270,130 l 45,22 24,-22 c 12,-11 47,-70 76,-131 z M 7735,10510 c 99,-15 549,-59 720,-70 280,-18 1008,-24 1338,-11 334,13 395,17 747,56 376,41 356,40 363,21 4,-9 17,-107 29,-219 21,-193 22,-240 23,-1032 0,-803 -1,-837 -23,-1045 -13,-118 -26,-219 -29,-224 -3,-5 -29,-6 -57,-2 -186,22 -651,67 -806,78 -253,17 -1333,17 -1585,0 -172,-12 -446,-39 -738,-73 -66,-8 -111,-9 -116,-3 -5,5 -19,101 -31,214 -48,451 -42,1753 11,2214 5,49 12,93 15,98 7,11 65,10 139,-2 z M 9620,6920 c 372,-11 565,-24 820,-56 219,-27 224,-29 214,-98 -21,-150 -163,-576 -329,-991 -143,-355 -215,-517 -345,-770 -254,-498 -633,-1119 -712,-1169 -28,-17 -44,-1 -153,157 -519,760 -912,1577 -1183,2462 -95,309 -104,353 -80,373 24,19 605,84 853,95 160,7 631,6 915,-3 z m 2485,-417 c 328,-107 504,-172 835,-308 199,-81 755,-348 843,-404 55,-35 58,-52 21,-107 -80,-119 -703,-741 -934,-933 -473,-394 -1174,-778 -1806,-990 -187,-62 -394,-121 -453,-128 -53,-6 -53,-6 -46,18 4,13 67,130 140,259 500,891 779,1550 1051,2490 25,85 47,163 50,173 7,24 14,22 299,-70 z m -5422,50 c 15,-30 70,-195 162,-488 227,-721 527,-1411 902,-2070 210,-371 211,-371 137,-360 -54,8 -316,82 -447,126 -640,217 -1346,607 -1847,1022 -340,282 -920,885 -920,957 0,30 649,360 960,487 180,74 677,248 955,335 71,23 83,21 98,-9 z"
       id="path1" />
  </g>
</svg>
