<svg viewBox="0 0 64 64" version="1.1" xmlns="http://www.w3.org/2000/svg">
    <title>Hamburger Menu</title>
    <style>
        .c2dl-hamburger-bar{fill:rgb(0,0,0)}
    </style>
    <g class="c2dl-hamburger-group">
        <desc>Hamburger Menu icon - Three bars stacked up</desc>
        <g transform="matrix(1,0,0,1,5,17)">
            <path id="c2dl-hamburger-top-bar" class="c2dl-hamburger-bar" d="M3,0H51A1,1 0 0 1 51,6H3A1,1 0 0 1 3,0Z"/>
        </g>
        <g transform="matrix(1,0,0,1,5,29)">
            <path id="c2dl-hamburger-middle-bar" class="c2dl-hamburger-bar" d="M3,0H51A1,1 0 0 1 51,6H3A1,1 0 0 1 3,0Z"/>
        </g>
        <g transform="matrix(1,0,0,1,5,41)">
            <path id="c2dl-hamburger-bottom-bar" class="c2dl-hamburger-bar" d="M3,0H51A1,1 0 0 1 51,6H3A1,1 0 0 1 3,0Z"/>
        </g>
    </g>
</svg>
