<svg xmlns="http://www.w3.org/2000/svg" viewBox="0 0 339 314">
    <title>GitLab</title>
    <style>
        .logo_gitlab_single_fg{fill:rgb(0,0,0)}
    </style>
    <g transform="matrix(1,0,0,1,-123.514,-122.78)">
        <desc>GitLab logo (single color)</desc>
        <path class="svg-fg logo_gitlab_single_fg" d="M461.48,298.35L443.7,243.72C443.606,243.217 443.462,242.725 443.27,242.25L407.6,132.45C405.656,126.654 400.173,122.739 394.06,122.78C387.961,122.743 382.513,126.713 380.68,132.53L346.68,237.16L239.37,237.16L205.32,132.53C203.493,126.734 198.077,122.769 192,122.78L191.92,122.78C185.802,122.781 180.339,126.731 178.42,132.54L142.72,242.47C142.72,242.57 142.64,242.65 142.61,242.75L124.51,298.36C121.789,306.705 124.777,315.913 131.88,321.07L288.26,434.7C291.077,436.739 294.915,436.719 297.71,434.65L454.12,321.07C461.226,315.911 464.212,306.696 461.48,298.35M227.73,253.22L271.32,387.38L166.68,253.22M314.73,387.41L356.53,258.79L358.33,253.22L419.43,253.22L324.76,374.5M394.2,142.83L424.83,237.16L363.52,237.16M341.49,253.16L311.12,346.62L293,402.28L244.58,253.16M191.85,142.83L222.54,237.16L161.27,237.16M141.29,308.13C139.781,307.032 139.148,305.073 139.73,303.3L153.17,262L251.74,388.37M444.72,308.13L334.26,388.34L334.63,387.86L432.83,262L446.27,303.28C446.859,305.054 446.23,307.018 444.72,308.12" style="fill-rule:nonzero;">
            <desc>GitLab logo form</desc>
        </path>
    </g>
</svg>
